<svg xmlns="http://www.w3.org/2000/svg" width="22" height="22" viewBox="0 0 22 22" fill="none"><path d="M20.5992 7.0675L13.0917 1.06583C11.9325 0.134166 10.0584 0.134166 8.91002 1.055L1.40252 7.0675C0.557524 7.73917 0.0158568 9.15833 0.200023 10.22L1.64086 18.8433C1.90086 20.3817 3.37419 21.6275 4.93419 21.6275H17.0675C18.6167 21.6275 20.1009 20.3708 20.3609 18.8433L21.8017 10.22C21.975 9.15833 21.4334 7.73917 20.5992 7.0675ZM11.0009 14.7917C9.50586 14.7917 8.29252 13.5783 8.29252 12.0833C8.29252 10.5883 9.50586 9.375 11.0009 9.375C12.4959 9.375 13.7092 10.5883 13.7092 12.0833C13.7092 13.5783 12.4959 14.7917 11.0009 14.7917Z" fill="currentColor"></path></svg>